<svg xmlns="http://www.w3.org/2000/svg" xmlns:xlink="http://www.w3.org/1999/xlink" width="454" zoomAndPan="magnify" viewBox="0 0 340.5 104.999996" height="140" preserveAspectRatio="xMidYMid meet" version="1.0"><defs><g><g id="id1"/></g><clipPath id="id2"><path d="M 5.121094 5.320312 L 87.621094 5.320312 L 87.621094 99.820312 L 5.121094 99.820312 Z M 5.121094 5.320312 " clip-rule="nonzero"/></clipPath></defs><g clip-path="url(#id2)"><path fill="rgb(97.648621%, 65.489197%, 0%)" d="M 44.886719 5.832031 L 6.621094 27.910156 C 6.570312 27.9375 6.53125 27.976562 6.484375 28.007812 C 6.394531 28.066406 6.308594 28.125 6.222656 28.191406 C 6.148438 28.257812 6.082031 28.324219 6.011719 28.390625 C 5.945312 28.457031 5.882812 28.523438 5.824219 28.59375 C 5.75 28.683594 5.6875 28.773438 5.628906 28.863281 C 5.597656 28.910156 5.5625 28.945312 5.535156 28.996094 C 5.519531 29.023438 5.511719 29.050781 5.496094 29.078125 C 5.445312 29.175781 5.402344 29.277344 5.359375 29.378906 C 5.328125 29.460938 5.292969 29.542969 5.269531 29.628906 C 5.242188 29.722656 5.222656 29.816406 5.203125 29.910156 C 5.1875 30.003906 5.167969 30.097656 5.15625 30.191406 C 5.148438 30.285156 5.148438 30.382812 5.148438 30.476562 C 5.148438 30.570312 5.148438 30.664062 5.15625 30.757812 C 5.167969 30.855469 5.1875 30.949219 5.203125 31.042969 C 5.222656 31.136719 5.242188 31.230469 5.269531 31.324219 C 5.292969 31.410156 5.328125 31.492188 5.363281 31.578125 C 5.402344 31.675781 5.445312 31.777344 5.496094 31.871094 C 5.511719 31.902344 5.519531 31.929688 5.535156 31.957031 C 5.5625 32.007812 5.601562 32.046875 5.628906 32.089844 C 5.691406 32.183594 5.75 32.269531 5.820312 32.355469 C 5.882812 32.429688 5.949219 32.496094 6.015625 32.566406 C 6.082031 32.632812 6.148438 32.699219 6.222656 32.757812 C 6.308594 32.828125 6.394531 32.886719 6.488281 32.945312 C 6.53125 32.976562 6.574219 33.015625 6.621094 33.042969 L 24.269531 43.226562 L 24.269531 63.589844 C 24.269531 63.621094 24.277344 63.652344 24.277344 63.683594 C 24.28125 63.796875 24.296875 63.902344 24.3125 64.011719 C 24.324219 64.101562 24.335938 64.1875 24.355469 64.273438 C 24.378906 64.367188 24.410156 64.460938 24.445312 64.554688 C 24.476562 64.644531 24.503906 64.730469 24.542969 64.816406 C 24.582031 64.90625 24.632812 64.988281 24.679688 65.074219 C 24.726562 65.152344 24.769531 65.230469 24.824219 65.308594 C 24.882812 65.386719 24.949219 65.460938 25.011719 65.535156 C 25.074219 65.605469 25.136719 65.675781 25.203125 65.742188 C 25.269531 65.804688 25.34375 65.859375 25.414062 65.914062 C 25.5 65.980469 25.582031 66.046875 25.675781 66.101562 C 25.703125 66.117188 25.726562 66.140625 25.753906 66.160156 L 44.886719 77.199219 C 45.804688 77.726562 46.933594 77.726562 47.851562 77.199219 L 66.984375 66.160156 C 67.9375 65.609375 68.46875 64.613281 68.46875 63.585938 C 68.46875 63.085938 68.339844 62.574219 68.070312 62.109375 C 67.25 60.691406 65.4375 60.207031 64.019531 61.023438 L 46.367188 71.207031 L 30.203125 61.878906 L 30.203125 43.226562 L 46.367188 33.898438 L 64.019531 44.082031 C 65.4375 44.898438 67.25 44.414062 68.070312 42.996094 C 68.339844 42.53125 68.46875 42.019531 68.46875 41.515625 C 68.46875 40.492188 67.9375 39.496094 66.984375 38.945312 L 47.851562 27.910156 C 46.933594 27.378906 45.804688 27.378906 44.886719 27.910156 L 27.238281 38.089844 L 14.035156 30.476562 L 28.71875 22.007812 L 46.367188 11.824219 L 64.019531 22.007812 L 81.667969 32.1875 L 81.667969 72.917969 L 64.019531 83.101562 L 46.367188 93.285156 L 11.070312 72.917969 L 11.070312 52.554688 C 11.070312 50.914062 9.742188 49.585938 8.105469 49.585938 C 6.464844 49.585938 5.136719 50.914062 5.136719 52.554688 L 5.136719 74.628906 C 5.136719 74.660156 5.144531 74.691406 5.148438 74.722656 C 5.152344 74.835938 5.164062 74.941406 5.179688 75.050781 C 5.191406 75.140625 5.203125 75.226562 5.222656 75.308594 C 5.246094 75.40625 5.277344 75.5 5.3125 75.59375 C 5.34375 75.683594 5.371094 75.769531 5.410156 75.855469 C 5.449219 75.941406 5.5 76.027344 5.546875 76.113281 C 5.59375 76.191406 5.640625 76.269531 5.691406 76.347656 C 5.75 76.425781 5.816406 76.496094 5.878906 76.574219 C 5.941406 76.644531 6.003906 76.714844 6.070312 76.777344 C 6.136719 76.84375 6.210938 76.898438 6.285156 76.953125 C 6.367188 77.019531 6.453125 77.085938 6.542969 77.140625 C 6.570312 77.15625 6.59375 77.179688 6.621094 77.199219 L 25.753906 88.234375 L 44.886719 99.273438 C 45.804688 99.804688 46.933594 99.804688 47.851562 99.273438 L 66.984375 88.234375 L 86.117188 77.199219 C 86.15625 77.175781 86.1875 77.148438 86.226562 77.125 C 86.269531 77.097656 86.308594 77.070312 86.347656 77.042969 C 86.480469 76.949219 86.601562 76.851562 86.714844 76.738281 C 86.722656 76.734375 86.726562 76.730469 86.734375 76.722656 C 86.859375 76.601562 86.964844 76.464844 87.0625 76.324219 C 87.085938 76.292969 87.105469 76.261719 87.125 76.230469 C 87.207031 76.101562 87.28125 75.972656 87.339844 75.832031 C 87.351562 75.808594 87.363281 75.789062 87.375 75.765625 C 87.4375 75.609375 87.484375 75.449219 87.523438 75.285156 C 87.53125 75.242188 87.539062 75.199219 87.546875 75.160156 C 87.582031 74.984375 87.601562 74.804688 87.601562 74.625 C 87.601562 74.625 87.601562 74.621094 87.601562 74.613281 L 87.601562 30.492188 C 87.601562 30.488281 87.601562 30.484375 87.601562 30.480469 C 87.601562 30.300781 87.582031 30.121094 87.546875 29.945312 C 87.539062 29.90625 87.53125 29.863281 87.523438 29.824219 C 87.484375 29.660156 87.4375 29.496094 87.375 29.339844 C 87.363281 29.316406 87.351562 29.296875 87.339844 29.273438 C 87.28125 29.136719 87.207031 29.003906 87.125 28.878906 C 87.105469 28.84375 87.085938 28.8125 87.0625 28.78125 C 86.964844 28.640625 86.859375 28.507812 86.734375 28.382812 C 86.726562 28.378906 86.722656 28.371094 86.714844 28.367188 C 86.601562 28.257812 86.480469 28.15625 86.347656 28.0625 C 86.308594 28.035156 86.269531 28.007812 86.226562 27.984375 C 86.1875 27.960938 86.15625 27.929688 86.117188 27.910156 L 47.851562 5.832031 C 46.933594 5.300781 45.804688 5.300781 44.886719 5.832031 " fill-opacity="1" fill-rule="nonzero"/></g><g fill="rgb(100%, 100%, 100%)" fill-opacity="1"><g transform="translate(106.760652, 71.926497)"><g><path d="M 22.875 0.765625 C 18.863281 0.765625 15.265625 -0.078125 12.078125 -1.765625 C 8.898438 -3.460938 6.398438 -5.820312 4.578125 -8.84375 C 2.765625 -11.863281 1.859375 -15.285156 1.859375 -19.109375 C 1.859375 -22.921875 2.765625 -26.335938 4.578125 -29.359375 C 6.398438 -32.378906 8.898438 -34.734375 12.078125 -36.421875 C 15.265625 -38.117188 18.863281 -38.96875 22.875 -38.96875 C 26.363281 -38.96875 29.507812 -38.347656 32.3125 -37.109375 C 35.113281 -35.867188 37.441406 -34.085938 39.296875 -31.765625 L 32.421875 -25.546875 C 29.941406 -28.523438 26.9375 -30.015625 23.40625 -30.015625 C 21.332031 -30.015625 19.488281 -29.554688 17.875 -28.640625 C 16.257812 -27.734375 15.003906 -26.453125 14.109375 -24.796875 C 13.210938 -23.148438 12.765625 -21.253906 12.765625 -19.109375 C 12.765625 -16.953125 13.210938 -15.046875 14.109375 -13.390625 C 15.003906 -11.742188 16.257812 -10.460938 17.875 -9.546875 C 19.488281 -8.640625 21.332031 -8.1875 23.40625 -8.1875 C 26.9375 -8.1875 29.941406 -9.675781 32.421875 -12.65625 L 39.296875 -6.4375 C 37.441406 -4.113281 35.113281 -2.332031 32.3125 -1.09375 C 29.507812 0.144531 26.363281 0.765625 22.875 0.765625 Z M 22.875 0.765625 "/></g></g></g><g fill="rgb(100%, 100%, 100%)" fill-opacity="1"><g transform="translate(147.038222, 71.926497)"><g><path d="M 3.828125 -38.203125 L 14.625 -38.203125 L 14.625 0 L 3.828125 0 Z M 3.828125 -38.203125 "/></g></g></g><g fill="rgb(100%, 100%, 100%)" fill-opacity="1"><g transform="translate(165.539711, 71.926497)"><g><path d="M 11.953125 -29.640625 L 0.21875 -29.640625 L 0.21875 -38.203125 L 34.4375 -38.203125 L 34.4375 -29.640625 L 22.765625 -29.640625 L 22.765625 0 L 11.953125 0 Z M 11.953125 -29.640625 "/></g></g></g><g fill="rgb(100%, 100%, 100%)" fill-opacity="1"><g transform="translate(200.195886, 71.926497)"><g><path d="M 20.515625 -10.15625 L 14.625 -10.15625 L 14.625 0 L 3.828125 0 L 3.828125 -38.203125 L 21.28125 -38.203125 C 24.738281 -38.203125 27.738281 -37.628906 30.28125 -36.484375 C 32.832031 -35.335938 34.800781 -33.695312 36.1875 -31.5625 C 37.570312 -29.4375 38.265625 -26.9375 38.265625 -24.0625 C 38.265625 -21.300781 37.617188 -18.890625 36.328125 -16.828125 C 35.035156 -14.773438 33.1875 -13.164062 30.78125 -12 L 39.015625 0 L 27.453125 0 Z M 27.34375 -24.0625 C 27.34375 -25.851562 26.773438 -27.238281 25.640625 -28.21875 C 24.515625 -29.195312 22.84375 -29.6875 20.625 -29.6875 L 14.625 -29.6875 L 14.625 -18.5 L 20.625 -18.5 C 22.84375 -18.5 24.515625 -18.976562 25.640625 -19.9375 C 26.773438 -20.90625 27.34375 -22.28125 27.34375 -24.0625 Z M 27.34375 -24.0625 "/></g></g></g><g fill="rgb(100%, 100%, 100%)" fill-opacity="1"><g transform="translate(240.582623, 71.926497)"><g><path d="M 3.828125 -38.203125 L 14.625 -38.203125 L 14.625 0 L 3.828125 0 Z M 3.828125 -38.203125 "/></g></g></g><g fill="rgb(100%, 100%, 100%)" fill-opacity="1"><g transform="translate(259.084111, 71.926497)"><g><path d="M 40.171875 -38.203125 L 40.171875 0 L 31.265625 0 L 14.40625 -20.359375 L 14.40625 0 L 3.828125 0 L 3.828125 -38.203125 L 12.71875 -38.203125 L 29.578125 -17.84375 L 29.578125 -38.203125 Z M 40.171875 -38.203125 "/></g></g></g><g fill="rgb(100%, 100%, 100%)" fill-opacity="1"><g transform="translate(303.072902, 71.926497)"><g><path d="M 34.5 -8.34375 L 34.5 0 L 3.828125 0 L 3.828125 -38.203125 L 33.78125 -38.203125 L 33.78125 -29.859375 L 14.515625 -29.859375 L 14.515625 -23.40625 L 31.484375 -23.40625 L 31.484375 -15.34375 L 14.515625 -15.34375 L 14.515625 -8.34375 Z M 34.5 -8.34375 "/></g></g></g></svg>