<svg xmlns="http://www.w3.org/2000/svg" xmlns:xlink="http://www.w3.org/1999/xlink" width="500" zoomAndPan="magnify" viewBox="0 0 375 374.999991" height="500" preserveAspectRatio="xMidYMid meet" version="1.0"><defs><clipPath id="id1"><path d="M 78.375 62.070312 L 296.625 62.070312 L 296.625 312.570312 L 78.375 312.570312 Z M 78.375 62.070312 " clip-rule="nonzero"/></clipPath></defs><path fill="rgb(97.648621%, 65.489197%, 0%)" d="M 187.5 0 C 83.945312 0 0 83.945312 0 187.5 C 0 291.054688 83.945312 375 187.5 375 C 291.054688 375 375 291.054688 375 187.5 C 375 83.945312 291.054688 0 187.5 0 " fill-opacity="1" fill-rule="nonzero"/><g clip-path="url(#id1)"><path fill="rgb(0%, 0%, 0%)" d="M 183.574219 63.425781 L 132.960938 92.6875 L 82.355469 121.945312 C 82.222656 122.019531 82.121094 122.125 81.996094 122.207031 C 81.757812 122.359375 81.527344 122.515625 81.304688 122.695312 C 81.109375 122.863281 80.925781 123.039062 80.746094 123.21875 C 80.570312 123.394531 80.402344 123.570312 80.242188 123.761719 C 80.054688 123.992188 79.886719 124.230469 79.726562 124.476562 C 79.648438 124.597656 79.550781 124.695312 79.484375 124.820312 C 79.441406 124.894531 79.421875 124.972656 79.382812 125.046875 C 79.246094 125.304688 79.132812 125.570312 79.023438 125.839844 C 78.9375 126.058594 78.84375 126.277344 78.777344 126.503906 C 78.703125 126.75 78.65625 127 78.605469 127.253906 C 78.558594 127.5 78.507812 127.746094 78.480469 127.996094 C 78.457031 128.246094 78.460938 128.496094 78.460938 128.75 C 78.460938 129 78.457031 129.25 78.480469 129.5 C 78.507812 129.753906 78.558594 130 78.605469 130.25 C 78.65625 130.503906 78.703125 130.753906 78.777344 131 C 78.84375 131.222656 78.9375 131.445312 79.027344 131.667969 C 79.132812 131.933594 79.246094 132.191406 79.382812 132.449219 C 79.421875 132.523438 79.441406 132.601562 79.484375 132.675781 C 79.554688 132.804688 79.65625 132.90625 79.734375 133.027344 C 79.890625 133.269531 80.054688 133.503906 80.238281 133.730469 C 80.398438 133.925781 80.574219 134.105469 80.75 134.285156 C 80.929688 134.460938 81.109375 134.636719 81.304688 134.800781 C 81.527344 134.984375 81.757812 135.140625 82 135.296875 C 82.121094 135.378906 82.226562 135.480469 82.355469 135.554688 L 129.042969 162.542969 L 129.042969 216.527344 C 129.042969 216.613281 129.066406 216.691406 129.066406 216.777344 C 129.074219 217.070312 129.109375 217.355469 129.148438 217.644531 C 129.183594 217.878906 129.214844 218.109375 129.265625 218.335938 C 129.324219 218.589844 129.414062 218.835938 129.5 219.085938 C 129.582031 219.320312 129.65625 219.554688 129.757812 219.777344 C 129.863281 220.015625 129.996094 220.230469 130.128906 220.457031 C 130.25 220.667969 130.367188 220.878906 130.507812 221.078125 C 130.660156 221.289062 130.835938 221.484375 131.003906 221.679688 C 131.167969 221.867188 131.328125 222.054688 131.507812 222.226562 C 131.683594 222.394531 131.878906 222.542969 132.070312 222.691406 C 132.292969 222.867188 132.515625 223.035156 132.753906 223.1875 C 132.828125 223.230469 132.886719 223.292969 132.960938 223.335938 L 183.574219 252.597656 C 186 254 188.992188 254 191.417969 252.597656 L 242.03125 223.335938 C 244.546875 221.882812 245.957031 219.238281 245.957031 216.519531 C 245.957031 215.191406 245.617188 213.839844 244.898438 212.601562 C 242.730469 208.84375 237.933594 207.554688 234.179688 209.726562 L 187.496094 236.714844 L 144.738281 211.992188 L 144.738281 162.546875 L 187.496094 137.824219 L 234.179688 164.816406 C 237.933594 166.980469 242.730469 165.699219 244.898438 161.9375 C 245.617188 160.703125 245.957031 159.351562 245.957031 158.015625 C 245.957031 155.300781 244.546875 152.65625 242.03125 151.203125 L 191.417969 121.945312 C 188.992188 120.542969 186 120.542969 183.574219 121.945312 L 136.886719 148.933594 L 101.972656 128.75 L 140.8125 106.296875 L 187.496094 79.300781 L 234.179688 106.296875 L 280.867188 133.285156 L 280.867188 241.253906 L 234.179688 268.246094 L 187.496094 295.238281 L 140.8125 268.246094 L 94.125 241.253906 L 94.125 187.269531 C 94.125 182.929688 90.609375 179.410156 86.28125 179.410156 C 81.945312 179.410156 78.429688 182.929688 78.429688 187.269531 L 78.429688 245.789062 C 78.429688 245.875 78.453125 245.953125 78.457031 246.035156 C 78.464844 246.332031 78.5 246.617188 78.542969 246.90625 C 78.578125 247.140625 78.605469 247.371094 78.660156 247.59375 C 78.71875 247.851562 78.804688 248.097656 78.890625 248.347656 C 78.972656 248.582031 79.050781 248.816406 79.148438 249.039062 C 79.257812 249.273438 79.390625 249.496094 79.515625 249.71875 C 79.640625 249.929688 79.757812 250.140625 79.898438 250.339844 C 80.046875 250.550781 80.222656 250.742188 80.394531 250.941406 C 80.558594 251.128906 80.71875 251.316406 80.902344 251.488281 C 81.078125 251.65625 81.265625 251.800781 81.460938 251.953125 C 81.683594 252.128906 81.90625 252.296875 82.148438 252.449219 C 82.21875 252.492188 82.28125 252.554688 82.355469 252.597656 L 132.960938 281.855469 L 183.574219 311.117188 C 186 312.523438 188.992188 312.523438 191.417969 311.117188 L 242.03125 281.855469 L 292.636719 252.597656 C 292.742188 252.539062 292.828125 252.464844 292.925781 252.402344 C 293.039062 252.332031 293.144531 252.261719 293.25 252.1875 C 293.597656 251.941406 293.921875 251.675781 294.21875 251.382812 C 294.238281 251.367188 294.253906 251.355469 294.273438 251.335938 C 294.597656 251.011719 294.878906 250.65625 295.140625 250.285156 C 295.199219 250.199219 295.253906 250.113281 295.308594 250.027344 C 295.523438 249.691406 295.710938 249.347656 295.871094 248.984375 C 295.902344 248.921875 295.933594 248.867188 295.960938 248.804688 C 296.132812 248.390625 296.257812 247.960938 296.359375 247.523438 C 296.382812 247.414062 296.402344 247.304688 296.421875 247.195312 C 296.507812 246.730469 296.566406 246.257812 296.566406 245.78125 C 296.566406 245.773438 296.5625 245.761719 296.5625 245.75 L 296.5625 128.789062 C 296.5625 128.777344 296.566406 128.765625 296.566406 128.757812 C 296.566406 128.28125 296.507812 127.808594 296.421875 127.34375 C 296.402344 127.238281 296.382812 127.128906 296.359375 127.019531 C 296.257812 126.585938 296.132812 126.15625 295.960938 125.738281 C 295.933594 125.675781 295.898438 125.621094 295.871094 125.558594 C 295.710938 125.195312 295.523438 124.847656 295.308594 124.511719 C 295.253906 124.425781 295.199219 124.339844 295.140625 124.253906 C 294.878906 123.882812 294.597656 123.527344 294.273438 123.203125 C 294.253906 123.183594 294.238281 123.171875 294.21875 123.15625 C 293.921875 122.863281 293.597656 122.597656 293.25 122.355469 C 293.144531 122.28125 293.039062 122.210938 292.925781 122.140625 C 292.828125 122.078125 292.742188 122.003906 292.636719 121.945312 L 242.03125 92.6875 L 191.417969 63.425781 C 188.992188 62.019531 186 62.019531 183.574219 63.425781 " fill-opacity="1" fill-rule="nonzero"/></g></svg>